<svg width="10" height="230" viewBox="0 0 10 230" fill="none" xmlns="http://www.w3.org/2000/svg">
<circle r="5" transform="matrix(-1 0 0 1 5 125)" fill="#41EAD4"/>
<circle r="5" transform="matrix(-1 0 0 1 5 145)" fill="#41EAD4"/>
<circle r="5" transform="matrix(-1 0 0 1 5 165)" fill="#41EAD4"/>
<circle r="5" transform="matrix(-1 0 0 1 5 185)" fill="#41EAD4"/>
<circle r="5" transform="matrix(-1 0 0 1 5 205)" fill="#41EAD4"/>
<circle r="5" transform="matrix(-1 0 0 1 5 225)" fill="#41EAD4"/>
<circle r="5" transform="matrix(-1 0 0 1 5 5)" fill="#41EAD4"/>
<circle r="5" transform="matrix(-1 0 0 1 5 25)" fill="#41EAD4"/>
<circle r="5" transform="matrix(-1 0 0 1 5 45)" fill="#41EAD4"/>
<circle r="5" transform="matrix(-1 0 0 1 5 65)" fill="#41EAD4"/>
<circle r="5" transform="matrix(-1 0 0 1 5 85)" fill="#41EAD4"/>
<circle r="5" transform="matrix(-1 0 0 1 5 105)" fill="#41EAD4"/>
</svg>
